<?xml version="1.0" encoding="utf-8"?>
<!-- Generator: Adobe Illustrator 23.0.3, SVG Export Plug-In . SVG Version: 6.00 Build 0)  -->
<svg version="1.1" id="Capa_1" xmlns="http://www.w3.org/2000/svg" xmlns:xlink="http://www.w3.org/1999/xlink" x="0px" y="0px"
	 viewBox="0 0 1200 1200" enable-background="new 0 0 1200 1200" xml:space="preserve">
<path fill="#554F55" d="M565.528,523.834c0-4.677,3.792-8.468,8.47-8.468s8.469,3.791,8.469,8.468c0,4.677-3.792,8.469-8.469,8.469
	S565.528,528.511,565.528,523.834z M806.586,334.564c4.677,0,8.47-3.792,8.47-8.47s-3.792-8.47-8.47-8.47
	c-4.677,0-8.469,3.792-8.469,8.47S801.909,334.564,806.586,334.564z M548.975,149.454c4.677,0,8.469-3.792,8.469-8.47
	s-3.792-8.47-8.469-8.47s-8.47,3.792-8.47,8.47S544.298,149.454,548.975,149.454z M731.663,184.777c4.677,0,8.469-3.792,8.469-8.47
	c0-4.677-3.792-8.47-8.469-8.47s-8.47,3.792-8.47,8.47C723.193,180.985,726.985,184.777,731.663,184.777z M707.122,626.476
	c4.678,0,8.469-3.791,8.469-8.47c0-4.677-3.791-8.468-8.469-8.468c-4.677,0-8.469,3.791-8.469,8.468
	C698.653,622.685,702.445,626.476,707.122,626.476z M824.369,738.402c4.677,0,8.47-3.792,8.47-8.47s-3.792-8.469-8.47-8.469
	s-8.469,3.792-8.469,8.469S819.692,738.402,824.369,738.402z M667.626,419.38c4.677,0,8.469-3.792,8.469-8.47
	s-3.792-8.47-8.469-8.47c-4.677,0-8.47,3.792-8.47,8.47S662.949,419.38,667.626,419.38z M393.411,247.562
	c4.677,0,8.47-3.792,8.47-8.47c0-4.677-3.792-8.47-8.47-8.47s-8.47,3.792-8.47,8.47C384.941,243.77,388.733,247.562,393.411,247.562
	z M410.35,402.441c4.677,0,8.47-3.792,8.47-8.47s-3.792-8.47-8.47-8.47s-8.47,3.792-8.47,8.47S405.672,402.441,410.35,402.441z
	 M356.182,559.486c6.958,0,12.598-5.641,12.598-12.598c0-6.957-5.64-12.598-12.598-12.598c-6.957,0-12.597,5.641-12.597,12.598
	C343.584,553.845,349.224,559.486,356.182,559.486z M836.967,510.614c6.957,0,12.598-5.641,12.598-12.598
	c0-6.959-5.641-12.598-12.598-12.598s-12.598,5.639-12.598,12.598C824.369,504.973,830.01,510.614,836.967,510.614z
	 M596.281,286.822c6.957,0,12.597-5.641,12.597-12.598c0-6.957-5.64-12.598-12.597-12.598c-6.958,0-12.598,5.641-12.598,12.598
	C583.683,281.181,589.323,286.822,596.281,286.822z M875.501,996.637c-7.91,12.697-16.664,24.817-26.198,36.266
	c-0.417,0.769-0.98,1.437-1.667,1.969c-11.071,13.083-23.146,25.288-36.126,36.478c-0.53,0.68-1.193,1.242-1.957,1.654
	c-16.525,14.022-34.462,26.422-53.574,36.95c-0.56,0.453-1.193,0.806-1.887,1.044c-45.864,24.866-98.357,39-154.092,39
	c-55.737,0-108.233-14.136-154.098-39.004c-0.687-0.237-1.312-0.587-1.867-1.034c-19.115-10.526-37.055-22.93-53.582-36.953
	c-0.771-0.416-1.44-0.98-1.973-1.668c-12.973-11.184-25.042-23.384-36.108-36.459c-0.693-0.537-1.263-1.213-1.682-1.989
	c-9.524-11.437-18.269-23.542-26.171-36.225c-0.569-0.599-1.014-1.31-1.311-2.098c-30.158-49.233-47.564-107.082-47.564-168.925
	V374.355C275.643,195.506,421.149,50,600,50s324.357,145.506,324.357,324.355v451.289c0,61.851-17.411,119.708-47.576,168.945
	C876.488,995.358,876.053,996.049,875.501,996.637z M911.831,825.645v-8.005c-129.259-28.846-223.414-0.922-280.506,28.502
	c-4.203,15.838-13.155,29.753-25.227,40.146c31.906,27.477,59.983,60.985,83.542,99.815h177.643
	C895.548,939.195,911.831,884.288,911.831,825.645z M382.696,813.495c-0.775,4.263-1.151,8.229-1.151,12.132
	c0,37.236,30.294,67.53,67.531,67.53c17.887,0,36.842-7.193,49.095-18.465V858.85l-73.339-59.386
	c-2.688-2.177-3.102-6.122-0.925-8.81c2.176-2.691,6.119-3.104,8.809-0.927l65.455,53.004v-57.389l-50.878-50.952
	c-2.445-2.447-2.442-6.413,0.006-8.856c2.447-2.44,6.413-2.44,8.856,0.006l42.016,42.077v-81.181c0-3.459,2.804-6.263,6.263-6.263
	c3.459,0,6.263,2.804,6.263,6.263v81.212l44.393-44.334c2.447-2.44,6.413-2.443,8.856,0.006c2.445,2.447,2.442,6.413-0.006,8.856
	l-53.244,53.172v57.245l67.803-55.438c2.676-2.19,6.622-1.795,8.814,0.887c2.19,2.676,1.794,6.624-0.884,8.814l-75.733,61.918
	v15.893c13.095,12.551,26.89,18.49,43.245,18.49c37.237,0,67.531-30.294,67.531-67.53c0-3.902-0.376-7.869-1.151-12.132
	c-0.358-1.973,0.249-3.997,1.635-5.447c14.488-15.162,22.467-35,22.467-55.866c0-41.939-32.751-77.349-74.562-80.619
	c-2.682-0.211-4.931-2.11-5.586-4.719c-7.555-30.052-34.455-51.043-65.415-51.043c-31.247,0-58.206,21.224-65.56,51.615
	c-0.604,2.492-2.667,4.367-5.208,4.728c-39.62,5.621-69.498,40.031-69.498,80.038c0,20.866,7.979,40.704,22.467,55.866
	C382.447,809.498,383.054,811.522,382.696,813.495z M510.698,986.102h164.184c-22.572-35.823-49.138-66.793-79.149-92.224
	c-12.173,7.48-26.484,11.804-41.789,11.804c-15.93,0-30.178-4.804-43.245-14.563V986.102z M288.169,374.355v423.451
	c11.543-1.81,35.686-4.742,67.685-4.052c-6.391-12.795-9.785-26.962-9.785-41.572c0-44.811,32.451-83.542,76.148-91.763
	c10.06-33.851,40.999-57.144,76.645-57.144c35.225,0,66.018,22.915,76.365,56.248c46.17,5.829,81.724,45.701,81.724,92.659
	c0,23.052-8.425,45.013-23.789,62.196c0.564,3.862,0.839,7.569,0.839,11.248c0,1.772-0.079,3.526-0.193,5.269
	c59.154-28.571,152.502-53.439,278.023-26.08v-430.46c0-171.944-139.887-311.829-311.831-311.829S288.169,202.411,288.169,374.355z
	 M288.169,825.645c0,58.643,16.283,113.55,44.549,160.457h165.454v-95.489c-13.908,9.468-31.682,15.069-49.095,15.069
	c-44.144,0-80.057-35.912-80.057-80.056c0-3.679,0.275-7.385,0.839-11.248c-2.249-2.515-4.33-5.144-6.277-7.853
	c-36.873-1.46-64.636,2.222-75.412,3.986V825.645z M788.617,1073.785H411.383c12.141,9.251,24.974,17.633,38.413,25.052h300.407
	C763.643,1091.418,776.476,1083.036,788.617,1073.785z M600,1137.474c44.368,0,86.591-9.335,124.838-26.11H475.162
	C513.409,1128.139,555.632,1137.474,600,1137.474z M829.792,1036.207H570.431c-3.459,0-6.263-2.804-6.263-6.263
	s2.804-6.263,6.263-6.263h270.267c6.613-8.023,12.825-16.389,18.623-25.052H340.679c5.798,8.664,12.01,17.029,18.623,25.052H501.51
	c3.459,0,6.263,2.804,6.263,6.263s-2.804,6.263-6.263,6.263H370.208c8.098,8.829,16.687,17.201,25.741,25.052H804.05
	C813.104,1053.407,821.694,1045.036,829.792,1036.207z"/>
</svg>
