<?xml version="1.0" encoding="utf-8"?>
<!-- Generator: Adobe Illustrator 24.0.2, SVG Export Plug-In . SVG Version: 6.00 Build 0)  -->
<svg version="1.1" id="Capa_1" xmlns="http://www.w3.org/2000/svg" xmlns:xlink="http://www.w3.org/1999/xlink" x="0px" y="0px"
	 viewBox="0 0 1200 1200" enable-background="new 0 0 1200 1200" xml:space="preserve">
<g>
	<path fill="#BBE2F4" d="M903.972,525.024c7.913,13.768,6.875,31.519-1.023,45.496l-0.015-0.01
		c-17.57,28.397-68.473,22.17-70.612-13.509C830.92,519.904,879.621,488.207,903.972,525.024z M240.138,782.514
		c-6.144,12.212,10.726,21.893,21.124,17.654c10.837-4.868,10.518-21.189-0.464-26.192l0.007-0.017
		C252.096,772.092,242.661,776.247,240.138,782.514z"/>
	<path fill="#A26CAB" d="M190.065,678.68c-0.515-0.01-1.022-0.101-1.345-0.201c0.277-4.031,3.083-8.959,5.378-12.651
		c3.667,3.392,8.021,6.038,12.65,7.855C201.377,675.928,195.553,678.347,190.065,678.68z M272.896,609.991
		c2.747-5.572,6.551-12.626,5.304-18.655c-0.127-0.051,0.096,0.333,0.191,0.436c-3.239-0.013-9.071,2.482-12.411,4.343
		C269.165,600.245,271.498,605.02,272.896,609.991z M208.833,645.773c-2.858,3.477-5.698,7.001-8.364,10.59
		c15.624,17.337,45.213,13.003,57.939-6.1l0.015,0.01c8.204-14.856,8.461-34.953-3.292-47.587
		C237.636,614.493,222.483,629.672,208.833,645.773z M192.69,639.642c0.299,1.582,0.559,3.183,0.949,4.743
		c13.854-18.793,29.849-36.207,49.151-49.6C216.334,584.622,190.84,614.468,192.69,639.642z"/>
	<path fill="#FCE6CF" d="M562.602,450.562c-0.286,1.636-1.638,2.822-3.215,2.965c-32.414,2.547-60.836,19.082-83.558,41.704
		c-16.302,4.235,5.415-22.385,9.785-25.619c19.493-18.068,47.73-27.489,74.062-23.217
		C561.635,446.737,562.945,448.603,562.602,450.562z M554.584,467.959c-33.096-8.726-74.559,31.651-53.95,30.988
		c13.218-7.273,25.152-15.319,39.559-19.812c4.83-2.771,14.661-1.603,17.268-6.894C557.848,470.264,556.56,468.347,554.584,467.959z
		 M463.477,595.936c-4.994-11.476-8.3-22.558-13.191-34.101c-0.4-1.008-1.186-1.837-2.283-2.222
		c-11.341-0.201-4.946,24.031-1.714,30.134c4.102,7.183,10.638,21.79,19.082,23.024
		C471.798,609.559,464.339,600.663,463.477,595.936z M481.234,590.638c-1.406-7.051-2.03-13.84-7.052-19.595
		c-5.676-5.199-9.442,4.305-8.849,8.87c0.706,8.136,4.501,19.314,12.891,22.077C483.932,601.502,481.566,594.205,481.234,590.638z
		 M638.46,489.898c-11.172,3.581,6.11,26.464,9.6,32.628C663.63,531.783,651.599,488.254,638.46,489.898z"/>
	<path fill="#ECC478" d="M284.719,744.196c6.772,15.237-17.199,22.585-22.971,8.29c-4.414-10.091,8.362-20.503,16.689-13.342
		l0.007-0.018C280.894,739.742,283.361,741.469,284.719,744.196z M687.954,563.548c-2.206,1.573-4.43,3.12-6.645,4.679
		c-3.058,26.559-22.779,46.359-39.451,65.473c11.081-7.095,21.979-14.457,32.808-21.948c-1.937-10.534,3.505-21.637,12.585-27.157
		C684.598,577.796,685.479,570.152,687.954,563.548z M600.053,673.973c11.979-6.947,23.914-14.031,35.739-21.318
		c-4.447,3.552-5.876,12.012-8.103,16.097c-10.267,5.934-19.83-1.25-28.838,13.907c-2.126,2.851-6.874,10.634-8.9,12.532
		c-2.649,1.317-5.747-0.608-9.045-0.594c-9.765-1.147-12.577,10.61-20.756,1.78C573.545,689.077,586.853,681.617,600.053,673.973z
		 M643.048,616.526c-26.288,33.43-70.619,51.286-112.688,44.775c47.735-25.691,94.109-53.91,138.813-84.582
		C664.461,592.12,653.39,604.206,643.048,616.526z M404.048,522.819c-5.828-9.255,8.148-14.326,10.564-22.669
		c6.988-18.771,10.787-16.529,26.589-24.196c9.993-4.811,10.696-14.482,13.977-23.288c10.121-11.138,24.617-23.936,31.338-38.472
		c6.6-14.328,18.164-2.859,28.983-0.565c12.738,2.547,26.29-5.082,31.58-16.754c13.712,9.299,29.059,9.808,42.022-1.509
		c-0.991,21.899,14.127,20.444,30.185,14.486c1.427,11.203,5.738,30.415,21.236,30.725c0.969,10.107,25.82-11.24,31.591-12.713
		c0.104,0.014,0.183,0.026,0.142,0.023c0.04-0.001,0.306,0.142,0.383,0.244c-23.192,19.444-17.781,64.197,19.304,51.869
		c5.297-1.086,8.686,1.698,5.89,6.784c-4.366,7.292-14.149,10.778-15.838,20.498c-3.468,13.655,10.81,23.812,12.657,35.218
		c-4.077,2.909-8.147,5.826-12.252,8.697c2.415-108.773-130.908-158.308-208.585-90.73l0.01,0.011
		c-64.169,59.179-66.997,169.358,24.071,202.999c-4.961,2.572-9.944,5.096-14.937,7.599c-4.597-1.836-10.347-0.677-13.809-2.234
		c-0.589-0.425-0.404-0.824-0.46-2.273c1.648-8.73-2.843-17.614-9.802-22.528c-25.058-13.168-52.764-38.298-38.636-69.004
		C432.419,552.342,418.11,537.814,404.048,522.819z M495.701,679.416c6.656-3.348,13.272-6.769,19.868-10.229
		c23.012,6.307,47.841,5.646,70.583-1.426c-13.135,7.71-26.362,15.263-39.696,22.622c-22.578-4.83-34.044,18.866-40.291,13.223
		C502.87,696.3,502.424,685.445,495.701,679.416z M607.479,447.669c-41.487-17.557-95.319-13.691-129.768,16.974l-0.01-0.011
		c-60.048,61.035-59.276,165.312,33.127,192.07c55.644-29.692,109.489-62.829,161.465-98.528
		C676.242,512.177,650.772,465.366,607.479,447.669z M465.373,612.77c-11.035-2.668-21.393-25.467-23.253-36.476
		c-2.257-19.419,7.156-24.119,12.64-3.063C455.533,580.654,473.641,610.481,465.373,612.77z M478.225,601.989
		c-8.395-2.763-12.182-13.939-12.894-22.075c-0.218-12.195,8.878-13.935,12.801-2.303
		C479.205,582.778,486.319,600.978,478.225,601.989z M557.46,472.24c-0.288,1.464-1.412,2.549-2.781,2.857
		c-19.952,3.96-36.674,13.694-54.045,23.849c-13.196,1.357,1.414-15.227,5.718-18.167
		C512.104,472.937,555.979,458.842,557.46,472.24z M559.429,453.523c-23.941,2.141-46.523,11.245-65.392,25.947
		c-5.448,2.217-19.049,20.821-23.324,15.603c-1.02-1.085-1.24-2.634-0.686-3.918c11.155-24.686,37.17-40.178,63.187-44.671
		C538.307,444.947,573.73,443.313,559.429,453.523z M647.724,495.585c5.348,3.945,14.013,34.608,0.337,26.942
		c-5.651-9.032-11.919-17.316-13.367-28.151C635.22,485.996,645.102,491.651,647.724,495.585z M621.929,919.73
		c12.184-9.057,22.936-20.255,31.177-33.131c6.423,14.367,17.332,26.638,29.894,34.736c-10.66,11.947-20.363,29.53-25.567,45.441
		c-10.96-16.757-24.504-32.184-40.6-43.739C618.545,921.958,620.287,920.932,621.929,919.73z M978.397,794.373
		c12.828-13.722,23.335-30.034,31.177-47.659c5.967,19.189,16.319,37.347,29.894,49.967c-11.009,17.725-20.645,43.597-25.567,65.366
		c-10.396-22.869-23.879-45.654-40.6-62.919C975.013,797.578,976.755,796.102,978.397,794.373z M211.77,431.585
		c7.391-7.906,13.446-17.305,17.964-27.461c3.438,11.057,9.403,21.52,17.225,28.791c-6.344,10.213-11.896,25.12-14.732,37.664
		c-5.99-13.178-13.759-26.305-23.394-36.254C209.819,433.432,210.823,432.582,211.77,431.585z M564.77,289.929
		c10.886-11.646,19.804-25.489,26.459-40.447c5.064,16.285,13.85,31.696,25.37,42.406c-9.343,15.043-17.521,36.999-21.698,55.474
		c-8.823-19.409-20.266-38.745-34.456-53.397C561.897,292.649,563.376,291.396,564.77,289.929z M727.183,457.64
		c5.46-5.841,9.934-12.785,13.272-20.288c2.54,8.168,6.948,15.9,12.726,21.271c-4.687,7.546-8.788,18.558-10.884,27.826
		c-4.426-9.736-10.165-19.435-17.283-26.785C725.743,459.004,726.484,458.376,727.183,457.64z M973.074,338.735
		c6.996-7.484,12.728-16.381,17.005-25.995c3.255,10.466,8.902,20.371,16.305,27.254c-6.005,9.668-11.26,23.778-13.945,35.653
		c-5.671-12.474-13.025-24.901-22.145-34.318C971.228,340.483,972.179,339.678,973.074,338.735z M105.486,885.342
		c6.996-7.484,12.728-16.381,17.005-25.995c3.255,10.466,8.902,20.371,16.305,27.254c-6.005,9.668-11.26,23.778-13.945,35.653
		c-5.671-12.474-13.025-24.901-22.145-34.318C103.64,887.09,104.59,886.285,105.486,885.342z"/>
	<path fill="#F2B34B" d="M1142.596,268.511c-84.799-122.234-440.664,63.116-541.3,120.788c-4.35-11.371-19.202-7.715-25.053-1.584
		c-8.198,5.943-15.09,1.214-23.719-3.517c-2.407-1.295-5.083-3.106-8.641-2.791c-3.357-0.125-7.393,3.919-7.93,6.054
		c-11.487,29.534-31.213-2.863-50.009,8.206c-13.608,9.207-16.798,26.613-29.562,36.714c-4.528,4.246-12.453,10.653-14.872,18.516
		c-1.365,3.698-1.062,7.217-2.938,10.253c-1.745,3.246-9.634,6.313-14.516,8.129c-11.349,3.444-17.028,15.15-20.965,25.08
		c-5.953,9.972-18.381,17.999-11.623,31.585c-44.616,27.619-70.781,47.324-103.044,71.375c5.716-22.789-20.225-18.481-32.481-10.529
		c-40.644-28.958-93.962,29.23-69.977,69.295c-6.103,9.034-15.198,30.842,2.451,32.539
		C-64.653,917.474,52.771,1040.128,350.93,933.406c212.658-71.763,408.418-189.711,580.817-332.544
		C1005.444,536.338,1188.945,374.755,1142.596,268.511z M402.694,516.362c1.899-4.174,6.665-7.48,9.478-11.902
		c3.751-5.568,6.303-14.342,9.275-18.036c5.027-5.897,13.269-6.223,19.754-10.472c10.003-4.82,10.692-14.473,13.978-23.287
		c5.383-7.337,16.69-15.405,22.165-23.979c4.876-6.043,8.091-14.361,13.207-19.747c9.517-10.07,34.497,24.551,56.529-12.064
		c13.712,9.299,29.059,9.808,42.022-1.509c-0.991,21.899,14.127,20.444,30.185,14.486c1.427,11.203,5.738,30.415,21.236,30.725
		c0.969,10.107,25.82-11.24,31.591-12.713c0.104,0.014,0.183,0.026,0.142,0.023c0.04-0.001,0.306,0.142,0.383,0.244
		c-23.192,19.444-17.781,64.197,19.304,51.869c5.297-1.086,8.686,1.698,5.89,6.784c-4.366,7.292-14.149,10.778-15.838,20.498
		c-3.468,13.655,10.81,23.812,12.657,35.218c-4.077,2.909-8.147,5.826-12.252,8.697c2.415-108.773-130.908-158.308-208.585-90.73
		l0.01,0.011c-64.169,59.179-66.997,169.358,24.071,202.999c-4.961,2.572-9.944,5.096-14.937,7.599
		c-4.698-2.005-10.779-0.382-14.111-2.516c-0.538-2.297,0.397-6.35-0.023-8.888c-3.181-18.626-25.671-21.897-36.727-34.323
		c-38.906-38.377,12.556-59.205-17.89-91.518C408.353,527.538,401.765,523.933,402.694,516.362z M908.83,510.678
		c-44.587-49.83-119.984,29.627-75.801,74.463c-36.076,29.695-76.855,53.969-116.083,79.236
		c-122.181,79.05-251.914,150.275-391.778,192.296c-110.53,33.261-220.411,28.042-124.201-109.351
		c56.278-75.637,133.308-132.949,211.037-185.125c-2.191,8.285-7,15.914-7.065,24.783
		c-44.834,32.556-190.702,127.671-175.546,188.345c-18.922,29.258,30.539,54.764,46.688,26.193
		c34.296-0.694,67.825-10.996,100.058-21.918c60.727-20.155,118.48-48.248,174.863-78.264c5.054,3.57,12.86,10.745,20.197,6.678
		c5.969-3.089,6.839-5.61,12.768-3.947c14.363,4.199,18.148-14.867,26.469-21.976c3.896-3.153,8.653-2.094,13.943-3.082
		c12.095-0.997,11.38-13.089,16.492-20.363c10.785-13.259,34.741-7.717,42.629-25.063l-0.018-0.006
		c1.651-4.149,1.485-8.512,0.777-12.663c81.177-60.41,210.19-139.426,251.737-232.204c19.053-61.515-65.788-47.5-100.86-39.851
		c-56.451,12.775-109.303,37.374-158.726,66.906c-16.863-7.449-34.765,23.939-40.977,5.932
		c75.685-42.605,154.329-81.271,237.373-107.209c279.714-80.574,164.389,83.165,40.567,202.496
		C912.041,514.773,910.491,512.668,908.83,510.678z M902.949,570.521l-0.015-0.01c-31.559,42.652-94.97,3.251-61.102-42.417
		C873.669,482.348,929.026,525.367,902.949,570.521z M458.729,672.563c1.305,3.406,4.326,5.754,7.489,6.769
		c-146.509,69.268-216.61,68.581-52.492-58.255c9.616,20.258,43.225,27.991,44.214,41.105
		C457.86,665.75,457.276,668.657,458.729,672.563z M696.886,584.452c-6.269-10.624,2.439-21.644,6.107-31.82
		c22.901-16.99,177.918-131.644,121.518-155.83c-3.611-13.683-24.02-13.851-28.747-0.772
		c-22.713,4.293-63.432,21.062-121.398,50.021c4.382-6.901,16.401-14.886,9.277-24.639c63.276-34.272,132.327-64.808,205.25-66.52
		c78.994-4.608,8.795,73.052-14.804,98.534c-57.274,57.524-125.788,105.28-191.708,152.992
		C683.372,590.917,700.717,592.291,696.886,584.452z M709.893,480.278c-8.139-27.717-38.806,6.263-39.169-23.134
		c69.505-35.069,105.073-48.159,123.231-52.306c0.138,14.118,21.119,19.468,27.052,6.494l-0.016-0.01
		c1.853-1.733,3.08-4.118,3.682-6.689c26.312,24.295-100.212,115.784-121.087,131.496c-2.705-9.777-12.537-17.432-11.051-26.496
		C697.404,499.463,712.665,495.128,709.893,480.278z M685.875,579.294c0.258,1.804,0.734,3.586,1.375,5.301
		c-9.08,5.519-14.523,16.625-12.585,27.157c-10.829,7.491-21.727,14.853-32.808,21.948c16.668-19.107,36.397-38.92,39.451-65.473
		c2.216-1.559,4.439-3.106,6.645-4.679C686.116,568.551,685.14,573.836,685.875,579.294z M635.474,625.163
		c-26.556,27.94-66.983,41.987-105.114,36.138c47.735-25.691,94.109-53.91,138.813-84.582
		C663.166,595.56,648.131,610.29,635.474,625.163z M635.792,652.654c-4.447,3.552-5.876,12.012-8.103,16.097
		c-10.267,5.934-19.83-1.25-28.838,13.907c-2.126,2.851-6.874,10.634-8.9,12.532c-2.649,1.317-5.747-0.608-9.045-0.594
		c-9.765-1.147-12.577,10.61-20.756,1.78C585.738,682.428,610.953,667.935,635.792,652.654z M672.353,557.453
		c-0.016,0.24-0.044,0.481-0.061,0.722c-51.976,35.699-105.82,68.836-161.465,98.528c-92.447-26.763-93.132-131.11-33.127-192.07
		l0.01,0.011C553.94,401.208,680.792,452.2,672.353,557.453z M515.569,669.187c23.012,6.307,47.841,5.646,70.583-1.426
		c-13.135,7.71-26.362,15.263-39.696,22.622c-22.578-4.83-34.044,18.866-40.291,13.223c-3.295-7.305-3.741-18.16-10.463-24.19
		C502.358,676.068,508.974,672.647,515.569,669.187z M498.18,709.952c1.175,1.49,2.823,2.789,4.657,3.645
		c-71.064,34.556-144.578,71.875-224.027,80.559c2.607-11.147-4.632-23.459-15.238-26.758l-0.007,0.017
		c-7.816-4.742-18.53-4.417-26.455,0.434c8.541-53.301,125.271-132.8,167.935-171.223c0.568,6.212,2.405,12.288,5.057,17.882
		c-20.669,17.152-156.555,108.118-79.986,121.878c55.549-2.141,106.017-29.327,155.468-51.988
		C494.632,690.755,492.07,701.245,498.18,709.952z M268.791,783.305c4.663,19.247-21.084,23.66-29.049,8.957
		c-4.204-11.629,8.452-21.04,21.063-18.303l-0.007,0.017C264.742,776.038,267.7,779.491,268.791,783.305z M269.858,594.212
		c2.166-1.18,6.995-2.515,8.533-2.439c-0.095-0.103-0.317-0.488-0.191-0.437c1.246,6.036-2.555,13.074-5.304,18.655
		c-1.397-4.971-3.73-9.746-6.916-13.875C267.269,595.442,268.561,594.795,269.858,594.212z M255.132,602.687
		c11.753,12.637,11.496,32.726,3.292,47.587l-0.015-0.01c-12.725,19.104-42.318,23.436-57.939,6.1
		C215.951,636.044,234.001,617.1,255.132,602.687z M194.735,623.994c6.384-19.374,26.919-37.604,48.055-29.208
		c-19.302,13.392-35.297,30.806-49.151,49.6C191.827,637.651,192.426,630.712,194.735,623.994z M188.78,677.838
		c0.48-3.794,3.135-8.517,5.319-12.009c3.667,3.392,8.021,6.038,12.65,7.855c-5.788,2.223-12.074,5.438-18.029,4.796
		C188.762,678.472,188.734,678.295,188.78,677.838z M188.647,678.455c-0.088-0.031-0.166-0.063-0.211-0.093
		C188.189,678.211,188.51,678.285,188.647,678.455z M1137.151,321.753C1071.732,550.98,600.969,834.7,379.941,909.454
		c-85.917,28.91-179.48,65.646-270.962,44.581c-131.532-45.1,38.934-220.997,94.399-269.392c5.122-2.24,10.018-4.902,14.685-7.976
		c18.18,2.672,36.942-7.186,46.269-22.422l-0.016-0.01c6.942-8.742,10.628-20.163,10.413-31.666
		c1.895-2.986,3.738-5.922,5.567-8.936c38.904-28.686,65.294-49.585,115.443-80.597c6.246,7.647,13.969,11.194,15.973,20.709
		c-80.745,52.137-160.457,110.213-219.209,187.404c-60.905,80.855-57.824,158.534,63.377,142.439
		c146.354-22.91,279.722-95.093,406.214-168.776c62.843-35.709,119.164-81.402,176.353-125.211
		c22.446,16.9,56.488,8.198,70.397-15.09l-0.015-0.011c10.92-13.72,14.256-33.852,7.895-50.59
		c49.641-38.374,232.879-220.497,87.283-238.808c-126.646-2.032-260.246,72.445-370.458,129.639
		c-1.329-8.551-2.805-24.253-15.45-18.944c-4.737,2.516-9.843,4.24-15.243,4.258c-0.095-1.084-0.111-2.16-0.163-3.349
		C704.899,340.788,810.805,289.475,923.4,258.327C989.64,240.55,1156.515,205.9,1137.151,321.753z"/>
</g>
</svg>
