<?xml version="1.0" encoding="utf-8"?>
<!-- Generator: Adobe Illustrator 23.0.3, SVG Export Plug-In . SVG Version: 6.00 Build 0)  -->
<svg version="1.1" id="Capa_1" xmlns="http://www.w3.org/2000/svg" xmlns:xlink="http://www.w3.org/1999/xlink" x="0px" y="0px"
	 viewBox="0 0 1200 1200" enable-background="new 0 0 1200 1200" xml:space="preserve">
<g>
	<path fill="#8E6543" d="M1146.646,309.847c-1.777-23.107-14.22-97.762-19.552-110.204c-5.332-12.442-12.442-58.657-14.22-67.545
		s-19.552-19.552-19.552-19.552s8.887-8.887,10.665-24.885s-5.332-33.772-5.332-33.772c-8.887,1.777-19.552,24.885-19.552,24.885
		c-5.333-19.552-10.665-15.997-10.665-15.997c-10.665,3.555-8.887,31.995-8.887,31.995l-61.323,6.221l-53.325,14.22l-67.544,39.105
		l-90.652,81.764l-83.542,58.657l-111.982,95.984l-122.647,95.984c0,0-19.552,15.997-40.882,35.55
		c-21.33,19.552-53.325,72.877-53.325,72.877s-39.105,60.435-15.997,117.314c23.107,56.88,58.657,65.767,88.874,79.987
		c30.217,14.22,23.107,51.547,23.107,65.767c0,14.22-19.552,44.437-19.552,44.437c-3.555,31.995,14.22,39.105,24.885,46.215
		s79.987,65.767,92.429,78.209c12.442,12.442,31.995,23.107,26.662,31.995c-5.332,8.887-3.555,21.33-3.555,21.33
		c15.997,26.662,53.325,26.662,53.325,26.662c3.555-1.777,1.777-12.442,1.777-12.442c12.442,5.333,26.662,23.107,26.662,23.107
		c-3.555,7.11-1.777,17.775-1.777,17.775c7.11,15.997,55.102,14.22,55.102,14.22c0-17.775-19.552-42.66-28.44-47.992
		c-8.887-5.333-31.995-37.327-31.995-37.327s-49.77-58.657-58.657-74.654c-8.887-15.997-14.22-40.882-10.665-62.212
		c3.555-21.33,12.442-72.877,10.665-87.097c-1.777-14.22,0-39.105,0-39.105c17.775-40.882,10.665-103.094,10.665-103.094
		c110.204-12.442,188.414-83.542,199.079-97.762c10.665-14.22,33.772-24.885,33.772-24.885
		c15.997,26.662,48.881,66.656,59.546,75.543c10.665,8.887,27.551,32.884,36.438,45.326s16.886,73.766,23.996,86.208
		c8.13,14.228,7.999,34.661,7.999,34.661l-14.22,15.997c3.555,3.555,19.552,12.442,19.552,12.442l-7.11,12.442
		c0,8.887,65.767,19.552,65.767,19.552s-1.777-7.11-5.333-12.442c-3.555-5.332-14.22-63.99-14.22-65.767
		s-3.555-103.094-3.555-103.094l1.778-28.44c-1.778-12.442-19.552-49.77-31.995-63.99c-12.442-14.22-39.993-75.543-39.993-75.543
		l4.444-15.109c10.665-21.33,8.887-88.874,7.11-108.427c-1.778-19.552-12.442-55.102-12.442-76.432
		c0-21.33,24.885-62.212,30.217-76.432c5.332-14.22,15.997-21.33,15.997-21.33c-1.777,14.22,15.997,23.107,21.33,33.772
		c5.332,10.665,29.329,63.101,29.329,63.101s-5.333,8.887-5.333,17.775c0,8.887,26.662,15.997,31.995,15.997
		c5.333,0,1.777-14.22,1.777-14.22s5.333-3.555,8.887-8.887c3.555-5.332-7.11-19.552-7.11-19.552l-1.778-15.997
		c19.552,21.33,21.33,58.657,21.33,58.657s8.887,10.665,19.552,8.887s15.997-21.33,15.997-21.33
		C1148.423,341.842,1148.423,332.955,1146.646,309.847z M538.745,949.743c0,0-3.555-3.555-15.997-17.775
		c-12.442-14.22-7.11-12.442-8.887-23.107c-1.777-10.665,3.555-24.885,15.997-40.882c12.442-15.997,17.775-69.322,17.775-69.322
		c6.221,22.219-13.331,63.101-13.331,75.543C534.302,886.642,538.745,949.743,538.745,949.743z M988.449,668.9
		c0,0-3.555,19.552-1.777,40.882c1.777,21.33,15.997,72.877,15.997,72.877s-14.22-44.437-19.552-63.99
		c-5.332-19.552-3.555-39.105-8.887-49.77s-47.992-103.094-47.992-103.094L988.449,668.9z"/>
	<path fill="#CC8B44" d="M409.333,113.6c5.819-0.246,11.668-1.002,17.154-2.96c4.226-1.508,8.168-3.702,12.261-5.538
		c5.833-2.616,11.959-4.491,18.141-6.083c2.948-0.759,6.67-0.998,9.418-2.278c2.376-1.107,3.671-3.383,6.642-3.334
		c0.706,0.012,1.4,0.166,2.103,0.233c5.434,0.517,11.246-2.355,16.849-2.43c0.395-0.005,0.818,0.001,1.142,0.226
		c0.397,0.277,0.527,0.798,0.603,1.276c0.744,4.657-0.943,9.635-4.366,12.88c-3.993,3.786-9.638,4.013-14.266,6.521
		c-5.377,2.914-9.601,7.97-14.962,11.17c-3.658,2.183-6.612,3.141-7.494,7.222c-1.256,5.807,0.488,12.058-0.541,17.73
		c-1.164,6.414-7.936,11.784-12.349,16.054c-7.387,7.149-16.632,12.246-27.124,12.246c-8.887,0-19.552,1.777-26.662,12.442
		c-7.11,10.665-3.555,21.33-3.555,21.33s-8.887-10.665-8.887-23.107s10.665-21.33,10.665-21.33c-1.777,1.777-28.44,3.555-39.105,0
		c-10.665-3.555-15.997-3.555-15.997-3.555c5.332-7.11,10.665-3.555,24.885-3.555c4.738-0.001,21.761-4.248,20.945-10.79
		c-0.246-1.97-2.532-2.876-4.451-3.385c-9.552-2.534-19.111-4.149-28.936-5.377c-8.181-1.022-16.068,7.59-20.998,12.959
		c-3.198,3.482-6.159,7.182-8.969,10.982c-2.459,3.325-3.841,7.461-6.278,10.581c-2.49-9.568,0.488-21.013,5.848-29.095
		c5.641-8.505,14.699-14.673,24.679-16.805c-3.98-2.504-8.941-3.169-13.588-2.451s-9.013,2.732-12.99,5.241
		c-3.175,2.003-6.239,4.375-9.881,5.287c0.242-2.191,1.207-4.296,2.709-5.909c0.797-0.856,1.824-1.961,1.299-3.006
		c-0.21-0.418-0.631-0.685-1.05-0.894c-3.948-1.971-8.361,0.201-11.982,1.93c-0.466,0.223-7.573,3.835-7.457,4.069
		c-1.777-3.555,14.22-21.33,33.772-23.107c8.23-0.748,16.175-1.39,24.306-3.009c-4.89-4.23-11.654-6.206-18.052-5.275
		c-0.404-1.517,1.657-2.409,3.221-2.553c20.649-1.906,37.273,8.713,56.579,13.046c8.697,1.952,17.648,2.768,26.554,2.406
		C409.223,113.604,409.278,113.602,409.333,113.6z"/>
	<path fill="#374B5B" d="M710.273,383.613c8.887,0,19.552-23.107,31.995-21.33c12.442,1.777,15.873,24.885,15.873,24.885
		s12.567,19.552,14.344,21.33c1.778,1.777-5.332,3.555-12.442,7.11c-7.11,3.555-7.11,15.997-10.665,26.662
		s-17.775,8.887-17.775,8.887c-24.885-17.775-55.102-63.99-55.102-63.99S701.385,383.613,710.273,383.613z"/>
	<path fill="#E5AFA1" d="M574.295,224.528c0,0,15.997-3.555,17.775-7.11c1.778-3.555,0-8.887,5.333-10.665
		c5.332-1.777,14.22-1.777,15.997,0c1.777,1.777,1.777,7.11,1.777,7.11s5.332,3.555,5.332,5.332c0,1.777-1.777,8.887-1.777,8.887
		s1.777-1.777,1.777,1.777s-1.777,8.887-1.777,8.887s-2.931,3.046-5.02,2.412c-2.09-0.634-14.672,2.391-14.672,2.391l-37.187,5.863
		L574.295,224.528z M467.646,105.436c0,3.072-0.639,6.245-2.248,8.895c-1.999,3.293-2.935,3.355-6.457,2.367
		c-2.577-0.723-5.481,0.311-7.259,2.312c-1.778,2.001-2.475,4.831-2.151,7.488c0.456,3.727,2.434,6.969,2.583,10.754
		c0.161,4.104-0.389,8.913-2.243,12.621c-3.555,7.11-19.552,17.775-19.552,17.775l5.332-1.777c12.442-3.555,28.44,5.332,28.44,5.332
		s-3.555-8.887,3.555-7.11c7.11,1.777,19.552,1.777,21.33,0c1.777-1.777-1.777-5.332-1.777-8.887c0-3.555,3.555-3.555,3.555-7.11
		s-5.332-1.777-7.11-1.777s7.11-1.777,8.887-3.555c1.777-1.777,1.777-7.11,1.777-7.11c5.332,0,5.332-3.555,3.555-7.11
		c-1.777-3.555-5.332-3.555-5.332-21.33s-8.887-23.107-8.887-23.107S467.646,96.549,467.646,105.436z M627.62,265.41l3.555,1.777
		c3.555,3.555,19.552,1.777,19.552,1.777c3.555-1.777,3.555-1.777,7.11-5.332c3.555-3.555,0-5.332,0-8.887c0-3.555,0,0,1.778-1.777
		c1.777-1.777-1.778-5.332,0-8.887c1.776-3.552,1.777-3.555,0.005-7.1c-1.393-2.785-6.314-3.074-8.964-3.338
		c-5.195-0.517-5.825,0.617-5.22-5.268c0.027-0.266,0.05-0.555-0.094-0.78c-0.114-0.18-0.314-0.285-0.511-0.368
		c-1.417-0.593-3.07-0.374-4.477,0.245c-1.406,0.619-2.616,1.602-3.806,2.574c-2.635,2.152-10.678,12.271-14.261,10.479
		C622.287,240.525,629.397,249.413,627.62,265.41z"/>
	<path fill="#3F2B1A" d="M711.162,215.64c3.183-1.061,6.495-1.707,9.857-2.039C714.96,214.694,711.162,215.64,711.162,215.64z
		 M712.939,226.305c0,0,2.906-0.311,7.442-0.706C717.441,225.541,714.885,225.749,712.939,226.305z M682.138,241.4
		c-1.789,0.731-3.404,1.604-4.749,2.68C677.389,244.08,679.047,242.949,682.138,241.4z M212.577,659.123
		c-46.215-3.555-71.099,23.107-71.099,23.107s30.217-21.33,51.547-14.22c0,0-30.217,3.555-44.437,31.995
		c0,0,24.885-23.107,42.659-19.552c0,0-23.107,10.665-28.44,31.995c-5.332,21.33,3.555,19.552-21.33,40.882
		c-24.885,21.33-58.657,47.992-67.544,95.984c-8.888,47.992,19.552,81.764,0,117.314l-21.33,19.552c0,0,28.44-1.778,31.995-15.997
		c3.555-14.22,14.22-10.665,8.887-62.212c0,0,0-42.66,14.22-51.547c0,0-8.888,15.997-5.333,58.657
		c3.555,42.66-1.778,60.435-10.665,65.767c0,0,24.885-5.332,23.108-83.542c-1.778-78.21,42.659-85.319,42.659-85.319
		s-33.772,21.33-28.44,99.539c0,0,7.11-55.102,28.44-78.209c21.33-23.107,46.215-40.882,47.992-72.877c0,0,12.443,15.997,0,40.882
		c-12.442,24.885-31.995,28.44-42.66,49.77c-10.664,21.33-21.33,42.66-21.33,42.66s33.772-46.215,51.547-56.88
		c17.775-10.665,46.215-21.33,42.659-62.212c-3.555-40.882,30.218-53.325,30.218-53.325s23.107,51.547-15.997,78.21
		c0,0,47.992-12.442,39.105-88.874c0,0,23.107,28.44,7.11,51.547c0,0,17.775-17.775,12.442-56.88c0,0,0-14.22,12.443-19.552
		c0,0-15.998,37.327,15.997,53.325c0,0-12.442-17.775-3.555-42.66c8.887-24.885,17.581-28.61,17.581-28.61l8.116-39.908
		c-0.812,0.974-36.362-2.581-64.801,20.526C294.341,648.459,258.791,662.678,212.577,659.123z M673.834,213.863
		c0,0,0.389-0.35,1.091-0.955C674.562,213.227,674.189,213.534,673.834,213.863z M855.183,77.362
		c-2.975-1.409-5.96-2.731-8.933-3.92C846.25,73.442,849.594,75.112,855.183,77.362z M676.946,211.209
		c-0.687,0.549-1.359,1.118-2.021,1.699C675.431,212.473,676.115,211.895,676.946,211.209z M601.186,457.291
		c4.393-2.527,8.017-4.905,10.436-7.023c14.219-12.442,40.882-35.55,46.215-47.992c5.332-12.442,10.206-23.96,5.991-30.644
		c-2.326-3.684-15.018-1.363-18.305-1.114c-12.563,0.953-25.075,2.813-37.517,4.746c-20.832,3.236-42.781,4.647-63.567,9.891
		c-10.382,2.619-21.544,6.026-30.603,11.914c-9.35,6.078-14.727,16.098-21.498,24.657c-5.277,6.669-10.548,8.005-17.544,11.791
		c0,0-17.813,9.641-26.701,16.751c-8.887,7.11-1.739,33.144,13.35,42.346c15.09,9.201,48.862,9.201,64.859,0.314
		c9.64-5.356,33.475-15.229,54.013-24.954c10.012,14.19,48.169,68.623,65.079,97.831c19.552,33.772,62.212,111.982,71.099,110.204
		c8.887-1.778,24.885-12.443,26.662-15.998c0,0-72.877-103.094-78.21-111.982C659.928,539.666,613.988,469.921,601.186,457.291z
		 M961.749,287.241l-2.046,4.427c32.576,16.482,75.07,12.974,75.07,12.974l-2.549-5.526
		C1020.007,303.493,961.749,287.241,961.749,287.241z M1121.708,145.325c0.017,1.681-0.137,3.483-1.186,4.797
		c-1.035,1.298-2.724,1.85-4.321,2.304c-12.558,3.568-25.692,5.099-38.734,4.515c0.39,49.881,11.292,99.922,4.306,149.313
		c-0.444,3.138-2.486,7.255-5.463,6.167c-1.126-0.411-1.838-1.497-2.47-2.515c-2.999-4.831-5.999-9.662-8.998-14.493
		c-18.514,2.09-37.528-0.392-54.885-7.166c-18.117-7.071-34.122-18.577-51.459-27.389c-49.79-25.311-107.081-27.361-161.928-28.56
		c-11.565,10.126-22.391,19.397-27.642,23.335c-14.219,10.665-35.55,31.995-57.768,23.996c-3.74-1.346,30.217-8.887,37.327-17.775
		c0,0-42.139,3.001-57.167-6.221h-32.596c3.555-5.333,0.615-7.49,0.615-7.49l87.854,3.502c3.719-0.979,6.676-2.282,8.405-4.011
		c0,0-51.608-15.166-73.46-6.235c10.889-5.455,39.636-16.103,77.015-0.875c0,0,10.665,0,7.11-3.555
		c-1.222-1.222-6.438-3.285-13.262-5.322c-6.722-0.05-13.445-0.106-20.168-0.105c-37.663,0.007-75.327,0.827-112.955,2.459
		c0.85-1.776,0.358-4.097-1.14-5.375c32.163,0.105,64.321-0.574,96.479-1.02c6.718-0.093,13.436-0.17,20.156-0.234
		c-5.356-1.002-10.603-1.687-14.992-1.774c14.288-1.246,44.897-3.342,52.992,0.706c0,0-27.565-15.152-52.355-12.704
		c14.297-2.579,41.268-5.981,61.243,0.261c0,0-5.333-23.107-33.772-17.775c-28.44,5.333-51.547,10.665-63.989,24.885
		c0,0,10.665-21.33,60.434-28.44c0,0-42.562-1.623-67.988,18.676c9.547-7.88,39.416-30.506,64.433-27.563
		c0,0-31.995-5.333-46.214-33.772c0,0,35.55,30.217,62.212,28.44c9.636-0.642,18.087-0.351,24.982,0.277
		c-28.668-5.525-80.386-18.386-94.304-41.159c0,0,83.542,40.882,108.427,33.772c0,0-63.99-12.442-90.652-49.77l-17.775-19.552
		c0,0,92.429,65.767,126.202,63.99c0,0-62.212-15.997-79.987-55.102c0,0,39.105,40.882,62.212,42.66
		c0,0-58.657-37.327-74.654-72.877c0,0,51.547,56.88,74.654,62.212c0,0-56.88-46.215-71.099-78.209c0,0,26.662,37.327,51.547,49.77
		c0,0-24.885-19.552-31.995-40.882c0,0,46.215,51.547,79.987,69.322c0,0-26.662-42.66-51.547-51.547c0,0,21.33,3.555,40.882,21.33
		c0,0-30.217-33.772-58.657-44.437c0,0,35.55,8.887,63.989,33.772l12.442,10.665c0,0-15.997-30.217-39.104-44.437
		c0,0,35.55,10.665,63.989,44.437c0,0,7.11,7.11,15.997,8.887c0,0-55.102-47.992-62.212-71.099c0,0,39.105,55.102,71.099,58.657
		c23.14,2.571,32.33,7,35.646,9.256c-6.913-5.724-34.12-27.559-62.263-40.885c14.387,5.79,43.674,15.42,69.277,10.3
		c35.55-7.11,40.882,3.555,40.882,3.555s10.665-15.997-95.984-23.107c0,0,79.987-10.665,111.981,10.665
		c0,0-19.552-19.552-53.324-24.885c0,0,62.212,1.778,83.542,42.66c0,0,0-23.107-14.22-33.772c0,0,30.217,19.552,35.55,28.44V80.551
		l10.665,10.665c0,0,0-15.997,0-15.997c1.84,4.416,4.113,16.521,10.176,15.728c9.817-1.286,12.648,2.175,13.646,12.292
		c1.204,12.218,2.409,24.436,3.613,36.654c16.239,2.313,33.16-0.416,47.849-7.716
		C1120.677,136.302,1121.662,140.808,1121.708,145.325z M1069.105,262.421c-1.323-54.724-11.235-108.882-14.978-163.49
		c-13.23,1.232-27.042-0.447-39.904,3.84c-15.997,5.332-37.327,0-81.764,24.885c-44.437,24.885-94.207,67.545-94.207,67.545
		s-18.247,16.48-36.45,32.506c8.06,0.197,16.118,0.452,24.174,0.81c18.388,0.816,36.76,2.091,55.067,4.021
		c17.071,1.8,34.929,3.08,51.293,8.511c24.052,7.983,44.684,23.315,67.748,33.477c20.867,9.194,44.166,14.607,66.565,10.336
		C1069.274,277.758,1069.288,269.99,1069.105,262.421z M963.565,380.947c-3.555-10.665-6.234-19.558-11.116-21.333
		c0,0,4.894,22.221-0.438,29.331c0,0-23.107-26.662-49.77-33.772c-26.662-7.11-67.544-12.442-101.317-12.442l-27.551,36.438
		c1.778,0,60.435-21.33,103.094-8.887c42.66,12.442,72.877,40.882,74.655,46.215c1.778,5.332,7.11,74.654-8.887,101.317
		c-15.997,26.662-19.552,31.995-19.552,31.995l3.555,8.887c0,0,19.774-28.44,25.885-40.882c6.11-12.442,15.185-54.401,9.759-95.634
		C961.881,422.18,967.12,391.612,963.565,380.947z M812.479,542.698c-11.118-12.971-21.528-26.595-32.139-39.979
		c-7.559-9.535-15.756-18.541-23.386-28.017c-4.907-6.093-9.184-12.753-14.784-18.067c-2.04-1.936-4.256-3.693-6.742-5.179
		c-4.812-2.876-9.624-5.753-14.435-8.629c3.745,5,5.389,12.6,7.836,18.328c5.118,11.979,10.614,23.801,16.598,35.374
		c11.723,22.674,25.321,44.487,41.622,64.171c11.31,13.658,22.776,27.19,34.317,40.654c3.555-7.11,26.662-17.775,24.485-23.32
		C843.674,572.491,823.143,555.141,812.479,542.698z"/>
	<path fill="#BF9B7B" d="M824.921,363.172c0,0-17.775,8.887-23.107,17.775c-5.333,8.887-28.44,8.887-40.882,7.11
		c-12.442-1.778-7.11-24.885-24.885-19.552c-17.775,5.333-15.997,17.775-28.44,21.33c-12.442,3.555-24.885-7.11-46.215-17.775
		c-21.33-10.665-110.204,28.44-138.644,24.885c-28.44-3.555-40.882,7.11-40.882-8.887s14.22-49.77,11.953-49.666
		c0,0,7.599-26.766,11.154-37.431c3.555-10.665,60.434-21.33,63.989-21.33c3.555,0,21.33,5.332,21.33,7.11
		c0,1.777,19.553,3.555,40.882-3.555c21.33-7.11,35.55-8.887,46.215-8.887c10.665,0,49.77-1.778,65.767,7.11
		C759.154,290.295,824.921,363.172,824.921,363.172z M635.618,1057.281l-39.54-3.385c0,0-10.23,21.16-4.898,26.492
		c5.333,5.333,8.96,22.436,48.028,26.327c0,0,6.15,4.408,7.501-5.627l2.15-5.214
		C646.283,1094.608,653.393,1076.833,635.618,1057.281z M708.839,1112.206c-8.544-5.509-35.893,5.51-35.893,5.51
		c-3.555,10.665-1.778,17.775-1.778,17.775c14.22,17.775,55.102,14.22,55.102,14.22
		C733.38,1142.6,717.383,1117.715,708.839,1112.206z M1027.795,825.56c-1.94-2.616-6.823-2.753-12.123-1.926
		c-12.557-12.079-37.887-5.425-37.887-5.425l-14.22,15.997l17.712,10.01c0.777,0.647,1.604,1.251,2.461,1.826
		c-9.416,9.577-5.862,14.099-5.862,14.099c7.201,9.938,63.899,16.725,63.899,16.725
		C1047.107,866.201,1027.795,825.56,1027.795,825.56z"/>
	<path fill="#763D2C" d="M828.476,444.936c-5.333,8.887-17.775,21.33-17.775,21.33l8.888,1.778l1.777,14.22
		c0,1.778-15.998,12.442-15.998,12.442c-21.33-1.778-71.099-44.437-71.099-44.437s6.221-4.444,9.776-6.221
		c3.555-1.778,8.888-12.442,7.11-21.33c-1.778-8.887,15.997-12.442,15.997-12.442l10.665,10.665c0,0,12.443,8.887,19.552,8.887
		s16.886-20.441,20.441-22.219c3.555-1.777,10.665-3.555,17.775,1.778C842.695,414.719,833.808,436.049,828.476,444.936z
		 M493.223,96.627c11.036,1.453,38.118-2.539,38.554-12.413c0,0,1.743-6.68-11.036-1.453c0,0-14.739-7.77-26.719-6.972
		c0,0-7.478,2.686-10.382-8.06c-2.904-10.746-7.768-18.079-13.213-17.716c-5.446,0.363-47.63,7.548-60.264,14.953
		c0,0-5.156,12.924-0.292,20.257c4.864,7.333-5.737,12.415-8.786,15.9c-3.049,3.485-35.359,11.107-32.165,18.005
		c0,0,14.811,8.859,34.052,2.107C422.214,114.484,482.187,95.174,493.223,96.627z M443.441,287.018
		c5.432,5.148,10.851,9.998,15.778,14.259c19.051,17.607,22.978,24.156,23.754,26.324c0.053,0.319,0.112,0.637,0.17,0.955l0,0v0
		c0.402,2.225,0.958,4.416,2.237,6.345c6.263,13.551,13.546-2.287,13.546-2.287c3.969-22.273,10.568-31.731,15.007-35.707
		c3.289-2.419,6.93-4.103,10.592-4.835c8.888-1.778,97.762-15.998,97.762-15.998s3.555,0,5.332-14.22
		c1.778-14.22-5.332-23.107-8.887-23.107c-3.555,0-53.325,8.887-53.325,8.887c7.11-1.778,7.11-5.333,7.11-5.333
		c-3.555-5.332,3.555-19.552,3.555-19.552c-7.11-3.555-31.995,10.665-31.995,10.665s-8.888,0-15.998-7.11
		c-7.11-7.11-5.333-24.885-12.442-30.217c-7.11-5.332-26.662-3.555-31.995-12.442c-5.332-8.887-24.139-14.605-24.139-14.605
		c-13.475-5.717-23.852-3.17-29.185,0.385c-5.333,3.555-17.775,0-21.33,8.887c-5.333,8.887-7.11,24.885-5.333,51.547
		C405.068,251.037,423.301,268.849,443.441,287.018z M687.315,386.42c-12.07-9.02-23.705-17.408-39.132-18.923
		c-16.635-1.634-33.649,3.109-49.671,6.965c-36.116,8.691-74.478,21.693-111.672,12.024c-2.44-0.634-4.117,1.103-4.453,3.027
		c-4.551,3.879-8.536,8.181-13.923,11.01c-5.74,3.015-11.96,4.044-18.25,5.279c-9.162,1.799-20.541,4.622-27.121,11.705
		c-1.776,1.912-0.018,4.9,2.513,4.317c5.932-1.366,11.086-5.122,16.908-7.012c6.86-2.227,14.142-2.747,20.969-5.098
		c6.286-2.165,12.947-5.799,17.849-10.785c-4.91,9.952-14.46,16.062-23.169,23.314c-8.935,7.44-16.146,16.516-23.007,25.84
		c-1.621,2.203,1.91,4.833,3.754,2.897c10.5-11.032,21.28-22.101,34.066-30.475c5.435-3.56,10.593-7.007,14.546-11.599
		c-5.238,12.117-17.903,33.706-19.57,36.481c-1.161,1.932,1.285,4.752,3.276,3.276c7.195-5.334,12.272-12.122,16.18-20.16
		c1.3-2.674,6.469-19.036,10.018-25.517c-0.33,19.676-1.024,39.499-9.348,57.71c-0.989,2.164,1.725,4.832,3.562,2.748
		c12.598-14.293,20.291-32.128,20.663-50.867c0.978,14.884,2.085,38.885,2.262,41.758c0.071,1.152,0.95,2.246,2.199,2.199
		c6.558-0.248,7.427-6.81,7.418-12.28c-0.008-4.646-3.21-34.182,0.961-41.012c0.441,13.797,0.883,27.594,1.324,41.39
		c0.083,2.612,3.961,2.612,4.058,0c0.539-14.573,1.1-29.147,1.465-43.725c0.699-0.064,1.398-0.126,2.098-0.186
		c0.992,8.92,1.949,17.838,3.223,26.724c0.376,2.621,4.821,2.017,4.639-0.628c-0.552-7.972,0.194-15.376,2.866-22.641
		c3.37,17.52,3.281,35.247,1.052,52.968c-0.304,2.417,3.669,2.896,4.223,0.572c4.545-19.061,6.967-38.272,7.659-57.785
		c0.322,0.533,0.644,1.067,0.966,1.6c0.705,1.167,2.62,1.307,3.289,0c1.269-2.479,2.539-4.959,3.809-7.438
		c4.202,5.698,0.494,19.909-0.008,25.602c-0.812,9.211-1.682,18.42-2.401,27.639c-0.162,2.74,3.982,2.673,4.227,0
		c0.292-3.17,0.542-6.345,0.811-9.518c1.754-11.025,6.03-21.54,8.891-32.345c0.007,11.022-0.776,22.018-2.375,33.007
		c-0.333,2.29,3.049,3.363,3.568,0.984c3.2-14.678,6.145-29.421,9.329-44.105c0.415,14.096,0.071,28.178-1.047,42.266
		c-0.209,2.634,3.996,3.17,4.594,0.622c2.852-12.158,5.513-24.365,8.174-36.569c0.51,11.098,0.318,22.201-0.571,33.326
		c-0.224,2.808,4.109,3.272,4.828,0.653c3.054-11.114,5.391-22.352,7.004-33.708c0.981,9.19,1.695,18.405,2.082,27.662
		c0.118,2.827,3.822,3.182,4.77,0.645c3.676-9.841,6.242-19.879,7.693-30.121c0.135,1.567,0.263,3.135,0.323,4.732
		c0.088,2.381,3.65,3.757,4.821,1.306c2.414-5.055,4.604-10.184,6.621-15.385c1.352,0.821,3.422,0.426,4.038-1.463
		c0.59-1.805,1.179-3.609,1.768-5.413c0.653,0.939,1.832,1.624,2.971,1.156c2.328-0.956,4.418-2.061,6.427-3.349
		c0.172,0.864,0.335,1.731,0.511,2.594c0.322,1.611,2.648,2.653,4.021,1.636c2.161-2.119,4.866-2.886,8.116-2.302
		c1.158,0.676,3.004,0.346,3.623-0.95c-1.464,3.069,6.328,4.238,7.4,4.495c3.953,0.946,6.405,4.508,10.71,3.682
		C689.019,390.434,688.818,387.543,687.315,386.42z M1094.21,186.312c0,0,19.552-3.555,23.107,5.332
		c3.555,8.887,1.777,10.665,1.777,10.665s-12.442,3.555-19.552-5.332C1099.542,196.977,1097.765,189.867,1094.21,186.312z
		 M1126.205,342.731c3.555,1.777,14.22-5.332,14.22-15.997s-19.552-10.665-19.552-10.665
		C1120.872,324.956,1122.65,340.953,1126.205,342.731z M1072.88,316.069v31.995c0,0,10.321-8.788,10.493-12.393
		C1083.545,332.066,1076.435,321.401,1072.88,316.069z"/>
</g>
</svg>
